<svg xmlns="http://www.w3.org/2000/svg" xmlns:xlink="http://www.w3.org/1999/xlink" width="64" zoomAndPan="magnify" viewBox="0 0 48 48" height="64" preserveAspectRatio="xMidYMid meet" version="1.0"><defs><clipPath id="3c534d8ffa"><path d="M 0.488281 8.050781 L 47.507812 8.050781 L 47.507812 38.910156 L 0.488281 38.910156 Z M 0.488281 8.050781 " clip-rule="nonzero"/></clipPath></defs><g clip-path="url(#3c534d8ffa)"><path fill="#10b981" d="M 2.6875 29.960938 C 2.453125 29.914062 2.21875 29.835938 1.984375 29.773438 C 1.035156 29.527344 1.027344 29.523438 0.878906 30.496094 C 0.746094 31.382812 0.636719 32.265625 0.511719 33.152344 L 0.511719 36.082031 C 0.542969 36.246094 0.578125 36.40625 0.597656 36.566406 C 0.6875 37.214844 0.785156 37.863281 0.851562 38.511719 C 0.894531 38.949219 1 38.972656 1.714844 38.9375 C 2.097656 38.921875 1.992188 38.628906 2.003906 38.394531 C 2.082031 36.9375 2.082031 35.472656 2.261719 34.027344 C 2.40625 32.875 2.757812 31.746094 3.050781 30.613281 C 3.152344 30.230469 3.082031 30.035156 2.6875 29.960938 Z M 30.746094 8.179688 C 30.367188 8.054688 30.101562 8.238281 29.9375 8.59375 C 29.894531 8.6875 29.847656 8.785156 29.800781 8.878906 C 27.035156 14.53125 24.273438 20.183594 21.507812 25.835938 C 20.324219 28.257812 19.125 30.671875 17.960938 33.105469 C 16.691406 35.753906 18.429688 38.675781 21.257812 38.683594 C 23.160156 38.691406 24.589844 37.453125 25.054688 35.4375 C 26.222656 30.328125 27.398438 25.222656 28.578125 20.117188 C 29.429688 16.421875 30.28125 12.726562 31.132812 9.03125 C 31.226562 8.632812 31.148438 8.3125 30.746094 8.179688 Z M 21.402344 36.652344 C 21.160156 36.648438 20.925781 36.597656 20.703125 36.5 C 20.480469 36.402344 20.28125 36.269531 20.113281 36.09375 C 19.941406 35.917969 19.8125 35.71875 19.722656 35.492188 C 19.632812 35.265625 19.589844 35.03125 19.589844 34.785156 C 19.59375 34.542969 19.644531 34.308594 19.738281 34.085938 C 19.835938 33.859375 19.96875 33.664062 20.144531 33.492188 C 20.316406 33.320312 20.515625 33.191406 20.742188 33.097656 C 20.96875 33.007812 21.203125 32.964844 21.445312 32.964844 C 21.691406 32.964844 21.925781 33.015625 22.148438 33.109375 C 22.375 33.203125 22.570312 33.335938 22.742188 33.507812 C 22.914062 33.683594 23.046875 33.882812 23.140625 34.105469 C 23.234375 34.332031 23.28125 34.566406 23.277344 34.808594 C 23.277344 35.058594 23.230469 35.292969 23.136719 35.523438 C 23.039062 35.75 22.902344 35.949219 22.726562 36.125 C 22.550781 36.296875 22.347656 36.429688 22.117188 36.519531 C 21.886719 36.613281 21.648438 36.65625 21.402344 36.652344 Z M 44.71875 26.558594 C 44.84375 26.511719 44.933594 26.382812 45.027344 26.300781 C 44.972656 26.160156 44.941406 26.074219 44.902344 25.992188 C 43.167969 22.296875 40.714844 19.179688 37.5 16.660156 C 37.210938 16.4375 37.019531 16.425781 36.777344 16.722656 C 35.472656 18.316406 34.160156 19.902344 32.84375 21.480469 C 32.59375 21.769531 32.65625 21.949219 32.894531 22.210938 C 33.480469 22.851562 34.058594 23.503906 34.578125 24.195312 C 35.679688 25.675781 36.511719 27.292969 37.074219 29.046875 C 37.164062 29.324219 37.253906 29.570312 37.648438 29.410156 C 40.003906 28.453125 42.363281 27.511719 44.71875 26.558594 Z M 46.148438 29.164062 C 46.015625 28.734375 45.832031 28.660156 45.421875 28.777344 C 42.996094 29.484375 40.566406 30.179688 38.128906 30.855469 C 37.730469 30.96875 37.636719 31.148438 37.691406 31.542969 C 37.804688 32.371094 37.90625 33.203125 37.949219 34.039062 C 38.035156 35.679688 37.828125 37.296875 37.441406 38.910156 C 37.539062 38.925781 37.636719 38.941406 37.734375 38.945312 C 40.785156 38.945312 43.835938 38.941406 46.890625 38.953125 C 47.339844 38.953125 47.371094 38.703125 47.378906 38.371094 C 47.492188 35.230469 47.082031 32.164062 46.148438 29.164062 Z M 21.09375 15.890625 C 21.03125 14.953125 20.933594 13.613281 20.851562 12.277344 C 20.832031 11.945312 20.707031 11.8125 20.367188 11.855469 C 16.539062 12.332031 13.0625 13.703125 9.9375 15.96875 C 9.613281 16.207031 9.597656 16.402344 9.824219 16.71875 C 10.386719 17.515625 10.9375 18.320312 11.464844 19.140625 C 11.695312 19.503906 11.890625 19.546875 12.273438 19.335938 C 14.769531 17.945312 17.445312 17.210938 20.300781 17.140625 C 21.164062 17.113281 21.167969 17.234375 21.09375 15.890625 Z M 8.230469 18.054688 C 7.964844 17.734375 7.75 17.738281 7.496094 18.039062 C 6.53125 19.175781 5.507812 20.265625 4.621094 21.460938 C 3.363281 23.160156 2.460938 25.054688 1.769531 27.054688 C 1.636719 27.429688 1.71875 27.617188 2.089844 27.742188 C 2.566406 27.898438 3.03125 28.089844 3.496094 28.277344 C 3.773438 28.386719 3.949219 28.316406 4.082031 28.039062 C 5.476562 25.164062 7.425781 22.746094 9.96875 20.8125 C 10.074219 20.734375 10.152344 20.621094 10.257812 20.507812 C 10.15625 20.363281 10.085938 20.25 10 20.148438 C 9.410156 19.453125 8.804688 18.765625 8.230469 18.054688 Z M 34.875 14.902344 C 33.765625 14.320312 32.644531 13.757812 31.484375 13.167969 C 31.417969 13.371094 31.382812 13.453125 31.363281 13.539062 C 30.976562 15.195312 30.59375 16.855469 30.210938 18.515625 C 29.910156 19.792969 29.914062 19.785156 31 20.554688 C 31.273438 20.75 31.453125 20.730469 31.632812 20.445312 C 31.914062 19.996094 32.210938 19.554688 32.503906 19.109375 C 33.296875 17.898438 34.089844 16.691406 34.886719 15.484375 C 35.015625 15.285156 35.167969 15.054688 34.875 14.902344 Z M 24.136719 17.460938 C 24.160156 17.464844 24.191406 17.445312 24.25 17.421875 L 26.941406 11.921875 C 25.691406 11.84375 24.527344 11.761719 23.363281 11.71875 C 23.261719 11.71875 23.0625 11.996094 23.054688 12.152344 C 22.96875 13.398438 22.910156 14.644531 22.863281 15.890625 C 22.808594 17.242188 22.820312 17.242188 24.136719 17.460938 Z M 24.136719 17.460938 " fill-opacity="1" fill-rule="nonzero"/></g></svg>