<svg xmlns="http://www.w3.org/2000/svg" xmlns:xlink="http://www.w3.org/1999/xlink" width="96" zoomAndPan="magnify" viewBox="0 0 72 72" height="96" preserveAspectRatio="xMidYMid meet" version="1.0"><defs><clipPath id="ab944b9028"><path d="M 0 12.328125 L 72 12.328125 L 72 59.578125 L 0 59.578125 Z M 0 12.328125 " clip-rule="nonzero"/></clipPath></defs><g clip-path="url(#ab944b9028)"><path fill="#10b981" d="M 3.371094 45.871094 C 3.007812 45.800781 2.652344 45.683594 2.292969 45.589844 C 0.839844 45.210938 0.828125 45.203125 0.601562 46.695312 C 0.394531 48.050781 0.230469 49.40625 0.0390625 50.761719 L 0.0390625 55.246094 C 0.0859375 55.492188 0.140625 55.738281 0.171875 55.988281 C 0.304688 56.980469 0.457031 57.972656 0.554688 58.96875 C 0.625 59.632812 0.785156 59.671875 1.878906 59.621094 C 2.464844 59.59375 2.308594 59.144531 2.324219 58.785156 C 2.441406 56.554688 2.441406 54.3125 2.71875 52.101562 C 2.941406 50.335938 3.476562 48.605469 3.925781 46.875 C 4.078125 46.289062 3.972656 45.988281 3.371094 45.871094 Z M 46.328125 12.523438 C 45.75 12.332031 45.339844 12.617188 45.09375 13.15625 C 45.023438 13.304688 44.953125 13.453125 44.882812 13.597656 C 40.648438 22.25 36.417969 30.902344 32.183594 39.554688 C 30.371094 43.265625 28.535156 46.960938 26.753906 50.6875 C 24.8125 54.746094 27.46875 59.21875 31.800781 59.230469 C 34.710938 59.238281 36.90625 57.34375 37.613281 54.257812 C 39.402344 46.4375 41.203125 38.621094 43.007812 30.804688 C 44.308594 25.144531 45.613281 19.488281 46.921875 13.828125 C 47.0625 13.21875 46.945312 12.730469 46.328125 12.523438 Z M 32.023438 56.117188 C 31.652344 56.113281 31.292969 56.035156 30.949219 55.886719 C 30.609375 55.738281 30.308594 55.53125 30.046875 55.261719 C 29.789062 54.996094 29.589844 54.6875 29.449219 54.339844 C 29.3125 53.996094 29.246094 53.636719 29.25 53.261719 C 29.253906 52.890625 29.328125 52.53125 29.476562 52.1875 C 29.621094 51.84375 29.828125 51.542969 30.09375 51.28125 C 30.363281 51.019531 30.667969 50.820312 31.011719 50.679688 C 31.359375 50.539062 31.71875 50.46875 32.089844 50.472656 C 32.464844 50.476562 32.824219 50.546875 33.167969 50.691406 C 33.511719 50.835938 33.8125 51.042969 34.078125 51.304688 C 34.339844 51.570312 34.542969 51.875 34.683594 52.222656 C 34.824219 52.566406 34.898438 52.925781 34.894531 53.296875 C 34.894531 53.675781 34.820312 54.039062 34.675781 54.386719 C 34.527344 54.738281 34.320312 55.042969 34.050781 55.308594 C 33.78125 55.574219 33.46875 55.777344 33.117188 55.917969 C 32.765625 56.058594 32.402344 56.125 32.023438 56.117188 Z M 67.722656 40.667969 C 67.910156 40.589844 68.050781 40.398438 68.195312 40.269531 C 68.109375 40.050781 68.066406 39.921875 68.003906 39.796875 C 65.34375 34.140625 61.589844 29.363281 56.667969 25.511719 C 56.230469 25.167969 55.929688 25.148438 55.558594 25.605469 C 53.566406 28.042969 51.558594 30.472656 49.539062 32.890625 C 49.160156 33.335938 49.253906 33.605469 49.617188 34.007812 C 50.511719 34.988281 51.402344 35.984375 52.195312 37.046875 C 53.886719 39.3125 55.160156 41.785156 56.019531 44.476562 C 56.15625 44.898438 56.289062 45.277344 56.894531 45.03125 C 60.5 43.566406 64.113281 42.125 67.722656 40.667969 Z M 69.914062 44.65625 C 69.707031 43.992188 69.425781 43.882812 68.800781 44.0625 C 65.085938 45.144531 61.363281 46.207031 57.632812 47.246094 C 57.019531 47.414062 56.875 47.691406 56.960938 48.292969 C 57.136719 49.5625 57.292969 50.839844 57.359375 52.121094 C 57.488281 54.628906 57.167969 57.101562 56.578125 59.574219 C 56.726562 59.601562 56.878906 59.621094 57.027344 59.628906 C 61.699219 59.628906 66.371094 59.625 71.042969 59.644531 C 71.734375 59.644531 71.78125 59.257812 71.796875 58.746094 C 71.964844 53.941406 71.335938 49.246094 69.914062 44.652344 Z M 31.550781 24.332031 C 31.457031 22.894531 31.304688 20.84375 31.179688 18.796875 C 31.148438 18.289062 30.960938 18.085938 30.4375 18.152344 C 27.550781 18.511719 24.757812 19.226562 22.054688 20.292969 C 19.351562 21.359375 16.824219 22.746094 14.472656 24.453125 C 13.96875 24.8125 13.949219 25.117188 14.292969 25.601562 C 15.15625 26.816406 16 28.050781 16.804688 29.308594 C 17.15625 29.863281 17.460938 29.929688 18.042969 29.609375 C 21.867188 27.476562 25.964844 26.355469 30.339844 26.242188 C 31.65625 26.203125 31.664062 26.386719 31.550781 24.332031 Z M 11.851562 27.644531 C 11.449219 27.152344 11.117188 27.160156 10.730469 27.621094 C 9.257812 29.363281 7.683594 31.027344 6.328125 32.863281 C 4.40625 35.460938 3.023438 38.363281 1.960938 41.425781 C 1.761719 42 1.882812 42.285156 2.453125 42.472656 C 3.183594 42.714844 3.894531 43.011719 4.605469 43.296875 C 5.035156 43.464844 5.300781 43.355469 5.503906 42.929688 C 7.636719 38.53125 10.625 34.828125 14.519531 31.863281 C 14.679688 31.746094 14.796875 31.574219 14.957031 31.398438 C 14.804688 31.179688 14.695312 31.003906 14.566406 30.847656 C 13.660156 29.78125 12.734375 28.730469 11.851562 27.644531 Z M 52.652344 22.820312 C 50.949219 21.925781 49.234375 21.066406 47.457031 20.160156 C 47.355469 20.472656 47.304688 20.597656 47.273438 20.730469 C 46.683594 23.269531 46.09375 25.808594 45.507812 28.347656 C 45.050781 30.304688 45.054688 30.292969 46.714844 31.472656 C 47.132812 31.769531 47.410156 31.742188 47.683594 31.304688 C 48.117188 30.617188 48.574219 29.9375 49.019531 29.257812 C 50.234375 27.40625 51.449219 25.558594 52.667969 23.710938 C 52.867188 23.402344 53.097656 23.050781 52.652344 22.816406 Z M 36.207031 26.738281 C 36.246094 26.742188 36.292969 26.707031 36.382812 26.675781 L 40.5 18.253906 C 38.589844 18.132812 36.808594 18.007812 35.023438 17.945312 C 34.867188 17.945312 34.566406 18.367188 34.550781 18.609375 C 34.421875 20.515625 34.332031 22.425781 34.257812 24.332031 C 34.179688 26.398438 34.191406 26.402344 36.207031 26.738281 Z M 36.207031 26.738281 " fill-opacity="1" fill-rule="nonzero"/></g></svg>