<svg xmlns="http://www.w3.org/2000/svg" xmlns:xlink="http://www.w3.org/1999/xlink" width="48" zoomAndPan="magnify" viewBox="0 0 36 36.000001" height="48" preserveAspectRatio="xMidYMid meet" version="1.0"><defs><clipPath id="b8a047a0d1"><path d="M 0.488281 6 L 35.511719 6 L 35.511719 29.351562 L 0.488281 29.351562 Z M 0.488281 6 " clip-rule="nonzero"/></clipPath></defs><g clip-path="url(#b8a047a0d1)"><path fill="#10b981" d="M 2.132812 22.3125 C 1.953125 22.277344 1.78125 22.21875 1.605469 22.175781 C 0.898438 21.988281 0.894531 21.988281 0.78125 22.710938 C 0.683594 23.371094 0.601562 24.03125 0.511719 24.691406 L 0.511719 26.871094 C 0.53125 26.992188 0.558594 27.113281 0.574219 27.234375 C 0.640625 27.714844 0.710938 28.195312 0.761719 28.679688 C 0.792969 29.003906 0.871094 29.023438 1.40625 29 C 1.691406 28.984375 1.613281 28.769531 1.621094 28.59375 C 1.675781 27.507812 1.679688 26.417969 1.8125 25.339844 C 1.921875 24.484375 2.179688 23.640625 2.398438 22.800781 C 2.476562 22.515625 2.421875 22.367188 2.132812 22.3125 Z M 23.023438 6.09375 C 22.742188 6 22.542969 6.136719 22.421875 6.398438 C 22.390625 6.472656 22.355469 6.542969 22.320312 6.613281 C 20.261719 10.824219 18.203125 15.03125 16.144531 19.238281 C 15.261719 21.042969 14.371094 22.84375 13.503906 24.652344 C 12.558594 26.628906 13.851562 28.804688 15.957031 28.808594 C 17.375 28.8125 18.441406 27.890625 18.785156 26.390625 C 19.65625 22.585938 20.53125 18.785156 21.410156 14.984375 C 22.042969 12.230469 22.675781 9.480469 23.3125 6.726562 C 23.382812 6.429688 23.324219 6.191406 23.023438 6.09375 Z M 16.066406 27.296875 C 15.886719 27.292969 15.710938 27.253906 15.542969 27.183594 C 15.378906 27.109375 15.230469 27.007812 15.105469 26.878906 C 14.980469 26.75 14.882812 26.601562 14.816406 26.429688 C 14.746094 26.261719 14.714844 26.085938 14.71875 25.90625 C 14.71875 25.726562 14.757812 25.550781 14.828125 25.382812 C 14.898438 25.21875 15 25.070312 15.128906 24.941406 C 15.257812 24.816406 15.40625 24.71875 15.574219 24.648438 C 15.742188 24.582031 15.917969 24.546875 16.097656 24.550781 C 16.28125 24.550781 16.453125 24.585938 16.621094 24.65625 C 16.789062 24.726562 16.9375 24.828125 17.066406 24.957031 C 17.191406 25.085938 17.289062 25.230469 17.359375 25.398438 C 17.429688 25.566406 17.464844 25.742188 17.464844 25.925781 C 17.464844 26.109375 17.425781 26.285156 17.355469 26.453125 C 17.285156 26.625 17.183594 26.773438 17.050781 26.902344 C 16.921875 27.03125 16.769531 27.128906 16.597656 27.199219 C 16.425781 27.265625 16.25 27.296875 16.066406 27.296875 Z M 33.429688 19.78125 C 33.519531 19.742188 33.589844 19.648438 33.660156 19.585938 C 33.617188 19.480469 33.59375 19.417969 33.566406 19.355469 C 32.273438 16.605469 30.445312 14.285156 28.050781 12.410156 C 27.839844 12.242188 27.695312 12.234375 27.511719 12.453125 C 26.542969 13.640625 25.566406 14.820312 24.585938 15.996094 C 24.402344 16.214844 24.445312 16.347656 24.625 16.542969 C 25.058594 17.019531 25.492188 17.503906 25.878906 18.019531 C 26.699219 19.121094 27.320312 20.324219 27.738281 21.632812 C 27.804688 21.839844 27.867188 22.023438 28.164062 21.902344 C 29.917969 21.191406 31.675781 20.488281 33.429688 19.78125 Z M 34.496094 21.71875 C 34.394531 21.398438 34.257812 21.34375 33.953125 21.433594 C 32.144531 21.957031 30.335938 22.472656 28.523438 22.980469 C 28.222656 23.0625 28.152344 23.195312 28.195312 23.488281 C 28.28125 24.105469 28.355469 24.726562 28.386719 25.351562 C 28.449219 26.570312 28.296875 27.773438 28.007812 28.976562 C 28.082031 28.988281 28.152344 29 28.226562 29.003906 C 30.5 29.003906 32.773438 29 35.042969 29.011719 C 35.378906 29.011719 35.402344 28.824219 35.410156 28.574219 C 35.492188 26.238281 35.1875 23.953125 34.496094 21.71875 Z M 15.835938 11.835938 C 15.789062 11.136719 15.714844 10.140625 15.65625 9.144531 C 15.640625 8.898438 15.546875 8.796875 15.292969 8.828125 C 12.441406 9.1875 9.855469 10.207031 7.527344 11.894531 C 7.285156 12.070312 7.277344 12.21875 7.441406 12.453125 C 7.863281 13.046875 8.273438 13.644531 8.664062 14.257812 C 8.835938 14.523438 8.984375 14.558594 9.265625 14.402344 C 11.125 13.363281 13.117188 12.820312 15.246094 12.765625 C 15.886719 12.746094 15.890625 12.835938 15.835938 11.835938 Z M 6.253906 13.449219 C 6.058594 13.207031 5.898438 13.210938 5.710938 13.433594 C 4.992188 14.28125 4.230469 15.09375 3.570312 15.984375 C 2.632812 17.25 1.960938 18.660156 1.445312 20.148438 C 1.347656 20.429688 1.40625 20.566406 1.683594 20.660156 C 2.039062 20.777344 2.382812 20.921875 2.730469 21.058594 C 2.9375 21.140625 3.066406 21.085938 3.167969 20.882812 C 4.207031 18.742188 5.660156 16.941406 7.554688 15.5 C 7.628906 15.441406 7.6875 15.359375 7.765625 15.273438 C 7.691406 15.167969 7.636719 15.082031 7.574219 15.003906 C 7.136719 14.488281 6.683594 13.976562 6.253906 13.449219 Z M 26.097656 11.101562 C 25.273438 10.667969 24.4375 10.246094 23.570312 9.808594 C 23.523438 9.960938 23.5 10.019531 23.484375 10.082031 C 23.195312 11.320312 22.910156 12.554688 22.625 13.789062 C 22.402344 14.742188 22.402344 14.734375 23.210938 15.308594 C 23.414062 15.453125 23.550781 15.441406 23.683594 15.226562 C 23.894531 14.890625 24.113281 14.5625 24.332031 14.230469 C 24.921875 13.332031 25.515625 12.433594 26.105469 11.53125 C 26.203125 11.382812 26.316406 11.214844 26.097656 11.097656 Z M 18.101562 13.003906 C 18.121094 13.007812 18.140625 12.992188 18.183594 12.976562 L 20.1875 8.878906 C 19.261719 8.820312 18.394531 8.757812 17.527344 8.730469 C 17.449219 8.730469 17.300781 8.933594 17.296875 9.050781 C 17.234375 9.980469 17.1875 10.90625 17.152344 11.835938 C 17.113281 12.839844 17.121094 12.84375 18.101562 13.003906 Z M 18.101562 13.003906 " fill-opacity="1" fill-rule="nonzero"/></g></svg>