<svg xmlns="http://www.w3.org/2000/svg" xmlns:xlink="http://www.w3.org/1999/xlink" width="96" zoomAndPan="magnify" viewBox="0 0 72 72" height="96" preserveAspectRatio="xMidYMid meet" version="1.0"><defs><clipPath id="b272974928"><path d="M 2.910156 1.757812 L 39 1.757812 L 39 70.007812 L 2.910156 70.007812 Z M 2.910156 1.757812 " clip-rule="nonzero"/></clipPath><clipPath id="7c92f010d7"><path d="M 22 16 L 68.910156 16 L 68.910156 56 L 22 56 Z M 22 16 " clip-rule="nonzero"/></clipPath></defs><path fill="#10b981" d="M 35.914062 31.019531 C 35.742188 30.574219 35.320312 30.277344 34.839844 30.277344 C 34.363281 30.277344 33.941406 30.574219 33.769531 31.019531 L 30.347656 40.144531 C 30.132812 40.734375 30.429688 41.386719 31.023438 41.613281 C 31.613281 41.832031 32.265625 41.535156 32.492188 40.941406 L 33.074219 39.402344 L 36.621094 39.402344 L 37.203125 40.941406 C 37.375 41.398438 37.808594 41.683594 38.273438 41.683594 C 38.410156 41.683594 38.546875 41.660156 38.671875 41.613281 C 39.265625 41.398438 39.5625 40.734375 39.335938 40.144531 Z M 33.929688 37.121094 L 34.851562 34.667969 L 35.777344 37.121094 Z M 33.929688 37.121094 " fill-opacity="1" fill-rule="nonzero"/><path fill="#10b981" d="M 41.683594 30.277344 C 41.058594 30.277344 40.542969 30.792969 40.542969 31.417969 L 40.542969 40.542969 C 40.542969 41.167969 41.058594 41.683594 41.683594 41.683594 C 42.3125 41.683594 42.824219 41.167969 42.824219 40.542969 L 42.824219 31.417969 C 42.824219 30.792969 42.3125 30.277344 41.683594 30.277344 Z M 41.683594 30.277344 " fill-opacity="1" fill-rule="nonzero"/><g clip-path="url(#b272974928)"><path fill="#10b981" d="M 37.121094 55.367188 C 26.4375 55.367188 17.738281 46.664062 17.738281 35.980469 C 17.738281 25.296875 26.4375 16.59375 37.121094 16.59375 C 37.75 16.59375 38.261719 16.082031 38.261719 15.453125 L 38.261719 2.910156 C 38.261719 2.28125 37.75 1.769531 37.121094 1.769531 L 31.113281 1.769531 C 30.589844 1.769531 30.132812 2.125 30.007812 2.636719 L 28.375 9.183594 C 26.984375 9.636719 25.640625 10.1875 24.363281 10.835938 L 18.582031 7.367188 C 18.136719 7.09375 17.554688 7.175781 17.1875 7.539062 L 8.695312 16.035156 C 8.328125 16.402344 8.25 16.980469 8.523438 17.425781 L 11.988281 23.207031 C 11.339844 24.484375 10.78125 25.832031 10.335938 27.222656 L 3.789062 28.851562 C 3.277344 28.980469 2.921875 29.433594 2.921875 29.960938 L 2.921875 41.980469 C 2.921875 42.503906 3.277344 42.960938 3.789062 43.085938 L 10.335938 44.714844 C 10.792969 46.105469 11.339844 47.453125 11.988281 48.730469 L 8.523438 54.511719 C 8.25 54.957031 8.328125 55.539062 8.695312 55.902344 L 17.1875 64.398438 C 17.554688 64.761719 18.136719 64.84375 18.582031 64.570312 L 24.363281 61.101562 C 25.640625 61.753906 26.984375 62.3125 28.375 62.757812 L 30.007812 69.300781 C 30.132812 69.816406 30.589844 70.167969 31.113281 70.167969 L 37.121094 70.167969 C 37.75 70.167969 38.261719 69.65625 38.261719 69.027344 L 38.261719 56.484375 C 38.261719 55.855469 37.75 55.34375 37.121094 55.34375 Z M 35.980469 67.910156 L 32.003906 67.910156 L 30.429688 61.605469 C 30.324219 61.214844 30.03125 60.910156 29.652344 60.785156 C 27.976562 60.28125 26.359375 59.621094 24.863281 58.8125 C 24.511719 58.617188 24.078125 58.628906 23.734375 58.832031 L 18.167969 62.175781 L 10.929688 54.933594 L 14.269531 49.367188 C 14.476562 49.027344 14.488281 48.59375 14.292969 48.238281 C 13.484375 46.746094 12.820312 45.125 12.320312 43.449219 C 12.207031 43.0625 11.898438 42.765625 11.5 42.675781 L 5.191406 41.101562 L 5.191406 30.859375 L 11.5 29.285156 C 11.886719 29.183594 12.195312 28.886719 12.320312 28.511719 C 12.820312 26.835938 13.484375 25.214844 14.292969 23.722656 C 14.488281 23.367188 14.476562 22.933594 14.269531 22.59375 L 10.929688 17.027344 L 18.167969 9.785156 L 23.734375 13.128906 C 24.078125 13.332031 24.511719 13.34375 24.863281 13.152344 C 26.359375 12.339844 27.976562 11.679688 29.652344 11.179688 C 30.039062 11.0625 30.335938 10.757812 30.429688 10.355469 L 32.003906 4.050781 L 35.980469 4.050781 L 35.980469 14.347656 C 24.566406 14.941406 15.457031 24.417969 15.457031 35.980469 C 15.457031 47.542969 24.566406 57.019531 35.980469 57.613281 Z M 35.980469 67.910156 " fill-opacity="1" fill-rule="nonzero"/></g><g clip-path="url(#7c92f010d7)"><path fill="#10b981" d="M 64.492188 31.417969 C 62.371094 31.417969 60.601562 32.878906 60.089844 34.839844 L 48.527344 34.839844 L 48.527344 30.277344 L 53.085938 30.277344 C 53.40625 30.277344 53.714844 30.140625 53.929688 29.902344 L 58.105469 25.328125 C 58.664062 25.570312 59.28125 25.71875 59.929688 25.71875 C 62.449219 25.71875 64.492188 23.675781 64.492188 21.15625 C 64.492188 18.636719 62.449219 16.59375 59.929688 16.59375 C 57.410156 16.59375 55.367188 18.636719 55.367188 21.15625 C 55.367188 22.195312 55.734375 23.140625 56.316406 23.902344 L 52.585938 28 L 48.527344 28 L 48.527344 25.71875 C 48.527344 25.089844 48.011719 24.578125 47.386719 24.578125 L 45.105469 24.578125 L 45.105469 22.296875 C 45.105469 21.667969 44.589844 21.15625 43.964844 21.15625 C 43.335938 21.15625 42.824219 21.667969 42.824219 22.296875 L 42.824219 24.578125 L 38.261719 24.578125 L 38.261719 22.296875 C 38.261719 21.667969 37.75 21.15625 37.121094 21.15625 C 36.496094 21.15625 35.980469 21.667969 35.980469 22.296875 L 35.980469 24.578125 L 31.421875 24.578125 L 31.421875 22.296875 C 31.421875 21.667969 30.90625 21.15625 30.28125 21.15625 C 29.652344 21.15625 29.140625 21.667969 29.140625 22.296875 L 29.140625 24.578125 L 26.859375 24.578125 C 26.230469 24.578125 25.71875 25.089844 25.71875 25.71875 L 25.71875 28 L 23.4375 28 C 22.8125 28 22.296875 28.511719 22.296875 29.136719 C 22.296875 29.765625 22.8125 30.277344 23.4375 30.277344 L 25.71875 30.277344 L 25.71875 34.839844 L 23.4375 34.839844 C 22.8125 34.839844 22.296875 35.351562 22.296875 35.980469 C 22.296875 36.609375 22.8125 37.121094 23.4375 37.121094 L 25.71875 37.121094 L 25.71875 41.683594 L 23.4375 41.683594 C 22.8125 41.683594 22.296875 42.195312 22.296875 42.824219 C 22.296875 43.449219 22.8125 43.964844 23.4375 43.964844 L 25.71875 43.964844 L 25.71875 46.242188 C 25.71875 46.871094 26.230469 47.382812 26.859375 47.382812 L 29.140625 47.382812 L 29.140625 49.664062 C 29.140625 50.292969 29.652344 50.804688 30.28125 50.804688 C 30.90625 50.804688 31.421875 50.292969 31.421875 49.664062 L 31.421875 47.382812 L 35.980469 47.382812 L 35.980469 49.664062 C 35.980469 50.292969 36.496094 50.804688 37.121094 50.804688 C 37.75 50.804688 38.261719 50.292969 38.261719 49.664062 L 38.261719 47.382812 L 42.824219 47.382812 L 42.824219 49.664062 C 42.824219 50.292969 43.335938 50.804688 43.964844 50.804688 C 44.589844 50.804688 45.105469 50.292969 45.105469 49.664062 L 45.105469 47.382812 L 47.386719 47.382812 C 48.011719 47.382812 48.527344 46.871094 48.527344 46.242188 L 48.527344 43.964844 L 52.585938 43.964844 L 56.316406 48.058594 C 55.734375 48.820312 55.367188 49.765625 55.367188 50.804688 C 55.367188 53.324219 57.410156 55.367188 59.929688 55.367188 C 62.449219 55.367188 64.492188 53.324219 64.492188 50.804688 C 64.492188 48.285156 62.449219 46.242188 59.929688 46.242188 C 59.28125 46.242188 58.664062 46.378906 58.105469 46.632812 L 53.929688 42.058594 C 53.714844 41.820312 53.40625 41.683594 53.085938 41.683594 L 48.527344 41.683594 L 48.527344 37.121094 L 60.089844 37.121094 C 60.601562 39.082031 62.371094 40.542969 64.492188 40.542969 C 67.011719 40.542969 69.050781 38.5 69.050781 35.980469 C 69.050781 33.460938 67.011719 31.417969 64.492188 31.417969 Z M 59.929688 18.875 C 61.183594 18.875 62.210938 19.902344 62.210938 21.15625 C 62.210938 22.410156 61.183594 23.4375 59.929688 23.4375 C 58.675781 23.4375 57.648438 22.410156 57.648438 21.15625 C 57.648438 19.902344 58.675781 18.875 59.929688 18.875 Z M 62.210938 50.804688 C 62.210938 52.058594 61.183594 53.085938 59.929688 53.085938 C 58.675781 53.085938 57.648438 52.058594 57.648438 50.804688 C 57.648438 49.550781 58.675781 48.523438 59.929688 48.523438 C 61.183594 48.523438 62.210938 49.550781 62.210938 50.804688 Z M 46.246094 45.101562 L 28 45.101562 L 28 26.859375 L 46.246094 26.859375 Z M 64.492188 38.261719 C 63.238281 38.261719 62.210938 37.234375 62.210938 35.980469 C 62.210938 34.726562 63.238281 33.699219 64.492188 33.699219 C 65.746094 33.699219 66.773438 34.726562 66.773438 35.980469 C 66.773438 37.234375 65.746094 38.261719 64.492188 38.261719 Z M 64.492188 38.261719 " fill-opacity="1" fill-rule="nonzero"/></g></svg>