<svg xmlns="http://www.w3.org/2000/svg" xmlns:xlink="http://www.w3.org/1999/xlink" width="96" zoomAndPan="magnify" viewBox="0 0 72 72" height="96" preserveAspectRatio="xMidYMid meet" version="1.0"><defs><clipPath id="9237753638"><path d="M 1.644531 1.644531 L 70.644531 1.644531 L 70.644531 70.644531 L 1.644531 70.644531 Z M 1.644531 1.644531 " clip-rule="nonzero"/></clipPath></defs><path fill="#10b981" d="M 55.277344 33.011719 C 54.945312 32.203125 54.15625 31.675781 53.28125 31.675781 C 51.109375 31.679688 49.273438 30.0625 49 27.90625 C 48.722656 25.753906 50.097656 23.726562 52.203125 23.1875 L 52.203125 21.953125 C 52.203125 21.355469 52.683594 20.871094 53.28125 20.871094 C 53.878906 20.871094 54.363281 21.355469 54.363281 21.953125 L 54.363281 23.1875 C 56.265625 23.679688 57.59375 25.390625 57.601562 27.355469 C 57.601562 27.953125 57.117188 28.433594 56.523438 28.433594 C 55.925781 28.433594 55.441406 27.953125 55.441406 27.355469 C 55.441406 26.160156 54.476562 25.195312 53.28125 25.195312 C 52.089844 25.195312 51.121094 26.160156 51.121094 27.355469 C 51.121094 28.546875 52.089844 29.515625 53.28125 29.515625 C 55.453125 29.511719 57.292969 31.128906 57.566406 33.28125 C 57.839844 35.4375 56.46875 37.464844 54.363281 38.003906 L 54.363281 39.238281 C 54.363281 39.835938 53.878906 40.320312 53.28125 40.320312 C 52.683594 40.320312 52.203125 39.835938 52.203125 39.238281 L 52.203125 38.003906 C 50.300781 37.511719 48.96875 35.800781 48.960938 33.835938 C 48.960938 33.238281 49.445312 32.757812 50.039062 32.757812 C 50.636719 32.757812 51.121094 33.238281 51.121094 33.835938 C 51.121094 34.710938 51.648438 35.496094 52.453125 35.832031 C 53.261719 36.167969 54.191406 35.980469 54.808594 35.363281 C 55.425781 34.746094 55.613281 33.816406 55.277344 33.011719 Z M 53.28125 44.640625 C 62.234375 44.640625 66.246094 39.753906 66.246094 34.917969 C 66.246094 27.632812 59.644531 18.519531 58.152344 16.550781 L 48.410156 16.550781 C 46.917969 18.523438 40.320312 27.644531 40.320312 34.917969 C 40.320312 39.753906 44.328125 44.640625 53.28125 44.640625 " fill-opacity="1" fill-rule="nonzero"/><path fill="#10b981" d="M 46.902344 9.757812 L 48.628906 14.398438 L 57.941406 14.398438 L 59.667969 9.753906 C 59.683594 9.71875 59.695312 9.679688 59.714844 9.644531 C 59.863281 9.34375 59.644531 8.992188 59.308594 8.988281 L 58.003906 8.988281 C 57.679688 8.988281 57.371094 8.839844 57.164062 8.582031 C 56.960938 8.328125 56.882812 7.992188 56.953125 7.671875 L 57.226562 6.449219 C 57.234375 6.414062 57.246094 6.375 57.257812 6.339844 C 57.355469 6.046875 57.132812 5.742188 56.824219 5.75 L 49.738281 5.75 C 49.429688 5.742188 49.207031 6.046875 49.304688 6.339844 C 49.316406 6.375 49.328125 6.410156 49.335938 6.445312 L 49.609375 7.671875 C 49.679688 7.992188 49.601562 8.328125 49.398438 8.582031 C 49.195312 8.839844 48.886719 8.988281 48.558594 8.988281 L 47.253906 8.988281 C 47.097656 8.988281 46.949219 9.070312 46.871094 9.207031 C 46.785156 9.339844 46.777344 9.511719 46.855469 9.652344 C 46.871094 9.691406 46.886719 9.726562 46.902344 9.757812 " fill-opacity="1" fill-rule="nonzero"/><path fill="#10b981" d="M 30.542969 26.613281 C 30.449219 26.886719 30.253906 27.109375 30 27.238281 C 29.742188 27.367188 29.445312 27.390625 29.175781 27.296875 L 25.933594 26.21875 C 25.492188 26.070312 25.195312 25.660156 25.195312 25.195312 L 25.195312 17.632812 C 25.195312 17.035156 25.679688 16.550781 26.273438 16.550781 C 26.871094 16.550781 27.355469 17.035156 27.355469 17.632812 L 27.355469 24.414062 L 29.855469 25.25 L 29.855469 25.246094 C 30.128906 25.335938 30.351562 25.53125 30.480469 25.789062 C 30.609375 26.042969 30.632812 26.339844 30.542969 26.613281 Z M 39.238281 24.113281 L 40.261719 24.113281 C 40.035156 21.144531 38.867188 18.324219 36.925781 16.070312 L 36.203125 16.792969 C 36.003906 17 35.726562 17.117188 35.4375 17.121094 C 35.148438 17.125 34.867188 17.011719 34.664062 16.804688 C 34.457031 16.601562 34.34375 16.320312 34.347656 16.03125 C 34.351562 15.742188 34.46875 15.464844 34.675781 15.265625 L 35.398438 14.542969 C 33.140625 12.601562 30.324219 11.429688 27.355469 11.203125 L 27.355469 12.230469 C 27.355469 12.828125 26.871094 13.3125 26.273438 13.3125 C 25.679688 13.3125 25.195312 12.828125 25.195312 12.230469 L 25.195312 11.203125 C 22.226562 11.429688 19.40625 12.601562 17.148438 14.542969 L 17.871094 15.265625 C 18.078125 15.464844 18.199219 15.742188 18.203125 16.03125 C 18.203125 16.320312 18.089844 16.601562 17.882812 16.804688 C 17.679688 17.011719 17.402344 17.125 17.113281 17.121094 C 16.824219 17.117188 16.546875 17 16.34375 16.792969 L 15.621094 16.070312 C 13.679688 18.324219 12.511719 21.144531 12.285156 24.113281 L 13.3125 24.113281 C 13.90625 24.113281 14.390625 24.597656 14.390625 25.195312 C 14.390625 25.789062 13.90625 26.273438 13.3125 26.273438 L 12.285156 26.273438 C 12.511719 29.242188 13.679688 32.0625 15.621094 34.320312 L 16.34375 33.597656 C 16.546875 33.386719 16.824219 33.269531 17.113281 33.265625 C 17.402344 33.265625 17.679688 33.378906 17.882812 33.582031 C 18.089844 33.789062 18.203125 34.066406 18.203125 34.355469 C 18.199219 34.644531 18.078125 34.921875 17.871094 35.125 L 17.148438 35.847656 C 19.40625 37.789062 22.226562 38.957031 25.195312 39.183594 L 25.195312 38.15625 C 25.195312 37.5625 25.679688 37.078125 26.273438 37.078125 C 26.871094 37.078125 27.355469 37.5625 27.355469 38.15625 L 27.355469 39.191406 C 30.324219 38.960938 33.144531 37.792969 35.40625 35.851562 L 34.675781 35.125 C 34.265625 34.699219 34.273438 34.027344 34.691406 33.609375 C 35.105469 33.191406 35.78125 33.1875 36.203125 33.597656 L 36.933594 34.328125 C 37.488281 33.679688 37.980469 32.984375 38.40625 32.246094 C 38.769531 30.195312 39.371094 28.191406 40.195312 26.273438 L 39.238281 26.273438 C 38.640625 26.273438 38.15625 25.789062 38.15625 25.195312 C 38.15625 24.597656 38.640625 24.113281 39.238281 24.113281 " fill-opacity="1" fill-rule="nonzero"/><path fill="#10b981" d="M 38.824219 38.566406 C 38.53125 37.773438 38.332031 36.953125 38.230469 36.113281 C 33.164062 41.667969 24.9375 43.007812 18.367188 39.347656 C 11.792969 35.6875 8.601562 27.992188 10.660156 20.753906 C 12.714844 13.519531 19.476562 8.648438 26.988281 8.988281 C 34.503906 9.332031 40.796875 14.792969 42.1875 22.1875 C 42.703125 21.242188 43.226562 20.363281 43.730469 19.550781 C 41.609375 12.976562 35.972656 8.148438 29.148438 7.058594 C 22.324219 5.96875 15.464844 8.804688 11.398438 14.394531 C 7.335938 19.984375 6.753906 27.382812 9.894531 33.539062 C 13.03125 39.695312 19.363281 43.566406 26.273438 43.558594 C 30.9375 43.539062 35.421875 41.757812 38.824219 38.566406 " fill-opacity="1" fill-rule="nonzero"/><g clip-path="url(#9237753638)"><path fill="#10b981" d="M 64.992188 54.058594 L 49.164062 66.785156 C 47.832031 67.832031 46.1875 68.402344 44.492188 68.40625 C 43.710938 68.410156 42.9375 68.273438 42.203125 68.007812 L 28.773438 63.191406 C 28.425781 63.070312 28.058594 63.003906 27.6875 63.003906 L 22.730469 63.003906 C 22.347656 63.667969 21.640625 64.082031 20.871094 64.085938 L 5.75 64.085938 C 4.554688 64.085938 3.589844 63.117188 3.589844 61.925781 L 3.589844 51.121094 C 3.589844 49.929688 4.554688 48.960938 5.75 48.960938 L 20.871094 48.960938 C 21.644531 48.964844 22.355469 49.382812 22.734375 50.050781 L 26.996094 50.050781 C 27.695312 50.050781 28.378906 49.824219 28.9375 49.402344 C 29.910156 48.675781 30.425781 48.289062 30.738281 48.082031 L 30.726562 48.066406 C 32.101562 47.027344 33.84375 46.605469 35.542969 46.90625 L 52.730469 49.71875 C 54.109375 49.925781 55.234375 50.917969 55.613281 52.257812 L 60.652344 48.585938 C 61.734375 47.808594 63.160156 47.707031 64.339844 48.320312 C 65.503906 48.898438 66.242188 50.085938 66.246094 51.382812 C 66.246094 52.417969 65.785156 53.398438 64.992188 54.058594 Z M 8.179688 34.890625 C 4.605469 28.222656 4.996094 20.125 9.1875 13.828125 C 13.386719 7.53125 20.703125 4.054688 28.238281 4.78125 C 35.769531 5.511719 42.289062 10.324219 45.199219 17.308594 C 45.820312 16.40625 46.332031 15.71875 46.65625 15.285156 L 44.886719 10.554688 C 44.511719 9.753906 44.566406 8.816406 45.035156 8.066406 C 45.5 7.3125 46.316406 6.847656 47.203125 6.828125 C 47.007812 6.046875 47.183594 5.222656 47.679688 4.589844 C 48.175781 3.957031 48.933594 3.585938 49.738281 3.589844 L 56.824219 3.589844 C 57.628906 3.585938 58.390625 3.957031 58.886719 4.589844 C 59.378906 5.222656 59.554688 6.046875 59.363281 6.828125 C 60.246094 6.847656 61.0625 7.3125 61.527344 8.066406 C 61.996094 8.816406 62.050781 9.753906 61.675781 10.554688 L 59.90625 15.285156 C 61.59375 17.5 68.40625 26.929688 68.40625 34.917969 C 68.40625 40.640625 63.671875 46.800781 53.28125 46.800781 C 46.386719 46.800781 41.996094 44.082031 39.816406 40.585938 C 36.070312 43.878906 31.257812 45.699219 26.273438 45.71875 C 18.707031 45.722656 11.753906 41.5625 8.179688 34.890625 Z M 65.234375 46.59375 C 64.804688 46.367188 64.339844 46.210938 63.863281 46.109375 C 68.269531 43.421875 70.351562 39.070312 70.351562 34.917969 C 70.351562 27.183594 64.675781 18.511719 62.097656 14.976562 L 63.472656 11.296875 C 64.089844 9.914062 63.984375 8.328125 63.179688 7.039062 C 62.71875 6.292969 62.066406 5.714844 61.308594 5.34375 C 61.171875 4.640625 60.875 3.972656 60.417969 3.390625 C 59.546875 2.28125 58.242188 1.644531 56.824219 1.644531 L 49.734375 1.644531 C 48.324219 1.644531 47.015625 2.28125 46.148438 3.390625 C 45.691406 3.972656 45.390625 4.640625 45.257812 5.34375 C 44.496094 5.714844 43.847656 6.292969 43.382812 7.039062 C 42.839844 7.910156 42.617188 8.917969 42.71875 9.910156 C 39.039062 5.949219 33.992188 3.386719 28.425781 2.847656 C 27.707031 2.777344 26.980469 2.742188 26.261719 2.742188 C 18.730469 2.742188 11.746094 6.484375 7.570312 12.753906 C 2.96875 19.660156 2.546875 28.492188 6.464844 35.808594 C 9.535156 41.535156 14.855469 45.550781 21.011719 47.03125 C 20.964844 47.027344 20.917969 47.015625 20.871094 47.015625 L 5.75 47.015625 C 3.484375 47.015625 1.644531 48.859375 1.644531 51.121094 L 1.644531 61.925781 C 1.644531 64.1875 3.484375 66.027344 5.75 66.027344 L 20.878906 66.027344 C 21.910156 66.023438 22.890625 65.628906 23.632812 64.949219 L 27.6875 64.949219 C 27.835938 64.949219 27.980469 64.972656 28.117188 65.023438 L 41.542969 69.839844 C 42.488281 70.179688 43.472656 70.351562 44.46875 70.351562 C 44.472656 70.351562 44.492188 70.351562 44.492188 70.351562 C 46.617188 70.347656 48.699219 69.625 50.378906 68.300781 L 66.234375 55.554688 C 67.480469 54.519531 68.191406 53 68.191406 51.378906 C 68.183594 49.328125 67.039062 47.492188 65.234375 46.59375 " fill-opacity="1" fill-rule="nonzero"/></g><path fill="#10b981" d="M 5.75 61.925781 L 20.871094 61.925781 L 20.871094 51.121094 L 5.75 51.121094 L 5.75 61.925781 " fill-opacity="1" fill-rule="nonzero"/><path fill="#10b981" d="M 49.761719 56.523438 L 44.347656 56.523438 L 46.851562 58.644531 Z M 49.761719 56.523438 " fill-opacity="1" fill-rule="nonzero"/><path fill="#10b981" d="M 63.359375 50.246094 C 62.902344 50.003906 62.347656 50.039062 61.925781 50.332031 L 48.019531 60.464844 C 47.273438 61.003906 46.261719 60.964844 45.558594 60.378906 L 41.003906 56.523438 L 37.078125 56.523438 C 36.480469 56.523438 35.996094 56.039062 35.996094 55.441406 C 35.996094 54.847656 36.480469 54.363281 37.078125 54.363281 L 52.296875 54.363281 C 52.628906 54.367188 52.945312 54.234375 53.175781 54 C 53.433594 53.757812 53.574219 53.414062 53.5625 53.058594 C 53.5 52.429688 53.011719 51.925781 52.382812 51.84375 L 35.164062 49.027344 C 34.054688 48.835938 32.917969 49.109375 32.019531 49.78125 L 32.011719 49.789062 C 31.917969 49.859375 30.234375 51.121094 30.234375 51.121094 C 29.300781 51.820312 28.164062 52.199219 26.996094 52.203125 L 23.035156 52.203125 L 23.035156 60.84375 L 27.6875 60.84375 C 28.304688 60.84375 28.917969 60.949219 29.5 61.160156 L 42.941406 65.980469 C 44.609375 66.515625 46.433594 66.1875 47.808594 65.105469 L 63.625 52.390625 C 63.917969 52.140625 64.085938 51.769531 64.085938 51.382812 C 64.082031 50.898438 63.800781 50.453125 63.359375 50.246094 " fill-opacity="1" fill-rule="nonzero"/></svg>