<svg xmlns="http://www.w3.org/2000/svg" xmlns:xlink="http://www.w3.org/1999/xlink" width="96" zoomAndPan="magnify" viewBox="0 0 72 72" height="96" preserveAspectRatio="xMidYMid meet" version="1.0"><defs><clipPath id="d544adc10b"><path d="M 2 4.453125 L 70 4.453125 L 70 67.453125 L 2 67.453125 Z M 2 4.453125 " clip-rule="nonzero"/></clipPath></defs><g clip-path="url(#d544adc10b)"><path fill="#10b981" d="M 8.480469 47.894531 L 8.480469 24.121094 C 8.480469 23.65625 8.859375 23.277344 9.324219 23.277344 L 19.417969 23.277344 C 19.886719 23.277344 20.265625 23.65625 20.265625 24.121094 L 20.265625 41.800781 C 20.265625 42.265625 19.886719 42.644531 19.417969 42.644531 C 18.953125 42.644531 18.574219 42.265625 18.574219 41.800781 L 18.574219 24.96875 L 10.171875 24.96875 L 10.171875 47.894531 C 10.171875 48.363281 9.792969 48.742188 9.324219 48.742188 C 8.859375 48.742188 8.480469 48.363281 8.480469 47.894531 Z M 69.984375 17.882812 L 68.351562 33.285156 C 68.320312 33.609375 68.101562 33.882812 67.792969 33.992188 C 67.488281 34.101562 67.144531 34.023438 66.914062 33.792969 L 63.832031 30.710938 L 38.855469 55.6875 C 38.695312 55.84375 38.480469 55.933594 38.257812 55.933594 L 21.273438 55.933594 L 9.921875 67.285156 C 9.757812 67.449219 9.542969 67.53125 9.324219 67.53125 C 9.109375 67.53125 8.894531 67.449219 8.726562 67.285156 L 2.320312 60.875 C 1.992188 60.546875 1.992188 60.011719 2.320312 59.679688 L 16.574219 45.429688 C 16.730469 45.273438 16.945312 45.179688 17.171875 45.179688 L 34.152344 45.179688 L 56.226562 23.105469 L 53.144531 20.023438 C 52.914062 19.792969 52.835938 19.453125 52.945312 19.144531 C 53.054688 18.835938 53.328125 18.621094 53.652344 18.585938 L 69.054688 16.953125 C 69.308594 16.925781 69.5625 17.015625 69.742188 17.195312 C 69.921875 17.375 70.011719 17.628906 69.984375 17.882812 Z M 68.195312 18.742188 L 55.589844 20.082031 L 58.019531 22.507812 C 58.351562 22.839844 58.351562 23.375 58.019531 23.707031 L 35.101562 46.625 C 34.941406 46.785156 34.726562 46.875 34.503906 46.875 L 17.519531 46.875 L 4.113281 60.28125 L 9.324219 65.488281 L 20.328125 54.488281 C 20.484375 54.332031 20.699219 54.242188 20.925781 54.242188 L 37.90625 54.242188 L 63.234375 28.914062 C 63.5625 28.585938 64.097656 28.585938 64.425781 28.914062 L 66.855469 31.34375 Z M 24.535156 42.644531 C 25.003906 42.644531 25.382812 42.265625 25.382812 41.800781 L 25.382812 15.566406 L 33.785156 15.566406 L 33.785156 39.921875 C 33.785156 40.386719 34.164062 40.765625 34.628906 40.765625 C 35.097656 40.765625 35.476562 40.386719 35.476562 39.921875 L 35.476562 14.71875 C 35.476562 14.253906 35.097656 13.875 34.628906 13.875 L 24.535156 13.875 C 24.070312 13.875 23.691406 14.253906 23.691406 14.71875 L 23.691406 41.800781 C 23.691406 42.265625 24.070312 42.644531 24.535156 42.644531 Z M 39.75 35.652344 C 40.214844 35.652344 40.59375 35.269531 40.59375 34.804688 L 40.59375 6.164062 L 48.996094 6.164062 L 48.996094 24.710938 C 48.996094 25.175781 49.375 25.554688 49.84375 25.554688 C 50.308594 25.554688 50.6875 25.175781 50.6875 24.710938 L 50.6875 5.320312 C 50.6875 4.851562 50.308594 4.472656 49.84375 4.472656 L 39.75 4.472656 C 39.28125 4.472656 38.902344 4.851562 38.902344 5.320312 L 38.902344 34.804688 C 38.902344 35.269531 39.28125 35.652344 39.75 35.652344 Z M 39.75 35.652344 " fill-opacity="1" fill-rule="nonzero"/></g></svg>