<svg xmlns="http://www.w3.org/2000/svg" xmlns:xlink="http://www.w3.org/1999/xlink" width="96" zoomAndPan="magnify" viewBox="0 0 72 72" height="96" preserveAspectRatio="xMidYMid meet" version="1.0"><defs><clipPath id="026dceaac1"><path d="M 12 28 L 41 28 L 41 68.515625 L 12 68.515625 Z M 12 28 " clip-rule="nonzero"/></clipPath></defs><path fill="#10b981" d="M 43.476562 51.742188 L 48.773438 62.996094 L 50.683594 62.09375 L 45.726562 51.570312 C 45.25 51.714844 44.75 51.800781 44.242188 51.800781 C 43.984375 51.800781 43.726562 51.78125 43.476562 51.742188 Z M 43.476562 51.742188 " fill-opacity="1" fill-rule="nonzero"/><g clip-path="url(#026dceaac1)"><path fill="#10b981" d="M 39.238281 47.71875 L 35.570312 48.214844 L 28.984375 50.519531 L 13.90625 28.792969 L 12.171875 29.996094 L 27.957031 52.738281 L 31.757812 68.722656 L 33.808594 68.234375 L 30.265625 53.332031 L 40.222656 49.847656 C 39.726562 49.214844 39.398438 48.484375 39.238281 47.71875 Z M 39.238281 47.71875 " fill-opacity="1" fill-rule="nonzero"/></g><path fill="#10b981" d="M 16.007812 16.640625 C 18.421875 20.285156 23.332031 21.285156 26.976562 18.871094 C 30.621094 16.457031 31.621094 11.546875 29.207031 7.902344 C 26.796875 4.257812 21.886719 3.257812 18.242188 5.671875 C 14.597656 8.082031 13.597656 12.996094 16.007812 16.640625 Z M 28.179688 11.742188 C 28.242188 13.6875 27.328125 15.621094 25.589844 16.773438 C 23.851562 17.925781 21.714844 18.007812 19.945312 17.191406 Z M 28.179688 11.742188 " fill-opacity="1" fill-rule="nonzero"/><path fill="#10b981" d="M 55.6875 39.355469 L 50.355469 46.898438 L 62.078125 62.601562 C 63.183594 64.074219 65.035156 64.652344 66.710938 64.210938 C 67.246094 64.070312 67.765625 63.824219 68.234375 63.472656 C 70.175781 62.011719 70.5625 59.257812 69.105469 57.316406 Z M 55.6875 39.355469 " fill-opacity="1" fill-rule="nonzero"/><path fill="#10b981" d="M 40.0625 43.730469 L 44.609375 37.292969 L 37.238281 38.28125 L 37.632812 37.429688 L 45.242188 36.398438 L 48.0625 32.402344 L 48.851562 32.6875 L 40.722656 44.195312 C 39.351562 46.140625 39.8125 48.828125 41.757812 50.203125 C 42.511719 50.734375 43.378906 50.992188 44.238281 50.992188 C 45.59375 50.992188 46.925781 50.355469 47.761719 49.167969 L 57.257812 35.722656 L 59.605469 32.402344 C 59.621094 32.382812 59.628906 32.359375 59.644531 32.339844 C 59.6875 32.273438 59.730469 32.207031 59.773438 32.136719 C 59.804688 32.082031 59.839844 32.023438 59.871094 31.96875 C 59.90625 31.90625 59.933594 31.84375 59.964844 31.785156 C 59.996094 31.714844 60.03125 31.648438 60.058594 31.582031 C 60.082031 31.523438 60.101562 31.46875 60.125 31.410156 C 60.152344 31.335938 60.179688 31.261719 60.203125 31.1875 C 60.21875 31.128906 60.234375 31.070312 60.25 31.011719 C 60.269531 30.9375 60.289062 30.859375 60.304688 30.785156 C 60.320312 30.71875 60.328125 30.652344 60.339844 30.582031 C 60.351562 30.515625 60.363281 30.449219 60.371094 30.378906 C 60.378906 30.304688 60.378906 30.226562 60.386719 30.148438 C 60.386719 30.089844 60.394531 30.027344 60.394531 29.96875 C 60.394531 29.890625 60.390625 29.808594 60.386719 29.730469 C 60.382812 29.667969 60.382812 29.609375 60.378906 29.546875 C 60.371094 29.472656 60.359375 29.398438 60.351562 29.324219 C 60.339844 29.257812 60.332031 29.191406 60.320312 29.125 C 60.308594 29.058594 60.292969 28.992188 60.277344 28.925781 C 60.257812 28.851562 60.238281 28.773438 60.21875 28.699219 C 60.210938 28.675781 60.207031 28.652344 60.199219 28.628906 C 60.1875 28.59375 60.171875 28.558594 60.160156 28.523438 C 60.132812 28.445312 60.105469 28.367188 60.074219 28.292969 C 60.050781 28.234375 60.027344 28.179688 60 28.121094 C 59.96875 28.050781 59.933594 27.980469 59.898438 27.910156 C 59.867188 27.851562 59.835938 27.796875 59.804688 27.742188 C 59.765625 27.675781 59.726562 27.613281 59.683594 27.546875 C 59.648438 27.492188 59.609375 27.4375 59.570312 27.382812 C 59.527344 27.324219 59.484375 27.265625 59.4375 27.210938 C 59.394531 27.15625 59.347656 27.105469 59.300781 27.050781 C 59.257812 27 59.207031 26.949219 59.15625 26.898438 C 59.105469 26.847656 59.054688 26.796875 59.003906 26.746094 C 58.953125 26.703125 58.902344 26.65625 58.847656 26.613281 C 58.789062 26.5625 58.730469 26.519531 58.671875 26.472656 C 58.636719 26.449219 58.605469 26.421875 58.574219 26.394531 C 58.550781 26.378906 58.527344 26.367188 58.503906 26.351562 C 58.445312 26.3125 58.386719 26.277344 58.328125 26.238281 C 58.261719 26.199219 58.195312 26.160156 58.128906 26.125 C 58.078125 26.097656 58.027344 26.074219 57.976562 26.046875 C 57.898438 26.011719 57.820312 25.972656 57.742188 25.9375 C 57.699219 25.921875 57.652344 25.90625 57.609375 25.890625 C 57.523438 25.855469 57.4375 25.824219 57.347656 25.796875 C 57.304688 25.78125 57.257812 25.773438 57.214844 25.761719 C 57.125 25.734375 57.035156 25.710938 56.949219 25.695312 C 56.894531 25.683594 56.839844 25.675781 56.789062 25.667969 C 56.707031 25.652344 56.625 25.640625 56.542969 25.632812 C 56.480469 25.625 56.414062 25.621094 56.351562 25.617188 C 56.277344 25.613281 56.203125 25.609375 56.132812 25.605469 C 56.0625 25.605469 55.992188 25.609375 55.921875 25.613281 C 55.851562 25.617188 55.78125 25.617188 55.710938 25.625 C 55.644531 25.628906 55.578125 25.640625 55.511719 25.648438 C 55.4375 25.660156 55.363281 25.667969 55.289062 25.683594 C 55.226562 25.695312 55.167969 25.707031 55.109375 25.722656 C 55.027344 25.742188 54.945312 25.761719 54.867188 25.785156 C 54.84375 25.792969 54.820312 25.796875 54.800781 25.800781 L 37.140625 31.324219 C 34.929688 27.308594 34.703125 23.511719 35.121094 18.96875 C 36.027344 18.613281 37.011719 18.210938 38 17.777344 C 43.191406 15.492188 46.523438 13.320312 45.90625 10.15625 C 45.285156 6.96875 41.175781 6.542969 39.421875 6.359375 C 36.914062 6.101562 33.464844 6.066406 28.933594 6.265625 C 29.277344 6.628906 29.597656 7.023438 29.882812 7.457031 C 30.773438 8.800781 31.238281 10.304688 31.316406 11.8125 C 34.015625 11.734375 35.988281 11.765625 37.425781 11.84375 C 35.671875 12.695312 33.394531 13.648438 31.035156 14.507812 C 30.507812 16.503906 29.277344 18.320312 27.425781 19.542969 C 24.28125 21.625 20.269531 21.398438 17.402344 19.269531 C 17.355469 19.296875 17.308594 19.320312 17.265625 19.351562 C 15.308594 20.625 13.246094 21.84375 11.433594 22.824219 C 12.5 21.527344 13.933594 19.878906 15.855469 17.792969 C 15.671875 17.566406 15.5 17.332031 15.335938 17.085938 C 14.226562 15.414062 13.777344 13.492188 13.914062 11.632812 C 10 15.757812 7.117188 19.0625 5.34375 21.480469 C 3.980469 23.332031 1.441406 26.785156 3.535156 29.328125 C 4.289062 30.242188 5.277344 30.609375 6.425781 30.609375 C 8.628906 30.609375 11.402344 29.242188 14.140625 27.757812 C 14.890625 27.351562 15.621094 26.933594 16.3125 26.535156 C 18.878906 34.027344 22.765625 39.308594 28.222656 45.886719 C 28.464844 46.175781 28.738281 46.421875 29.023438 46.617188 C 29.957031 47.492188 31.257812 47.957031 32.621094 47.773438 L 32.839844 47.746094 L 39.136719 46.902344 C 39.089844 45.808594 39.386719 44.691406 40.0625 43.730469 Z M 40.0625 43.730469 " fill-opacity="1" fill-rule="nonzero"/></svg>