<svg xmlns="http://www.w3.org/2000/svg" xmlns:xlink="http://www.w3.org/1999/xlink" width="96" zoomAndPan="magnify" viewBox="0 0 72 72" height="96" preserveAspectRatio="xMidYMid meet" version="1.0"><defs><clipPath id="c7d8694324"><path d="M 40 1.566406 L 70.566406 1.566406 L 70.566406 32 L 40 32 Z M 40 1.566406 " clip-rule="nonzero"/></clipPath><clipPath id="61e7073b45"><path d="M 40 40 L 70.566406 40 L 70.566406 70.566406 L 40 70.566406 Z M 40 40 " clip-rule="nonzero"/></clipPath><clipPath id="45794eeeb1"><path d="M 1.566406 1.566406 L 32 1.566406 L 32 32 L 1.566406 32 Z M 1.566406 1.566406 " clip-rule="nonzero"/></clipPath><clipPath id="a4dab8f53c"><path d="M 1.566406 40 L 32 40 L 32 70.566406 L 1.566406 70.566406 Z M 1.566406 40 " clip-rule="nonzero"/></clipPath></defs><path fill="#10b981" d="M 44.109375 30.5 L 44.109375 26.699219 C 44.109375 22.222656 40.476562 18.578125 35.988281 18.578125 C 31.511719 18.578125 27.867188 22.222656 27.867188 26.699219 L 27.867188 30.5 L 31.109375 30.5 L 31.109375 26.699219 C 31.109375 24.015625 33.304688 21.820312 35.988281 21.820312 C 38.683594 21.820312 40.867188 24.015625 40.867188 26.699219 L 40.867188 30.5 Z M 44.109375 30.5 " fill-opacity="1" fill-rule="nonzero"/><path fill="#10b981" d="M 24.8125 34.714844 L 24.8125 48.144531 C 24.8125 49.679688 26.0625 50.925781 27.59375 50.925781 L 44.378906 50.925781 C 45.929688 50.925781 47.164062 49.679688 47.164062 48.144531 L 47.164062 34.714844 C 47.164062 33.183594 45.929688 31.933594 44.378906 31.933594 L 27.59375 31.933594 C 26.0625 31.933594 24.8125 33.179688 24.8125 34.714844 Z M 35.988281 37.714844 C 37.222656 37.714844 38.210938 38.703125 38.210938 39.9375 C 38.210938 40.828125 37.679688 41.589844 36.921875 41.945312 L 37.222656 45.144531 L 34.769531 45.144531 L 35.054688 41.945312 C 34.296875 41.589844 33.765625 40.828125 33.765625 39.9375 C 33.765625 38.703125 34.769531 37.714844 35.988281 37.714844 Z M 35.988281 37.714844 " fill-opacity="1" fill-rule="nonzero"/><g clip-path="url(#c7d8694324)"><path fill="#10b981" d="M 66.65625 31.355469 L 70.425781 31.355469 C 68.347656 15.898438 56.066406 3.617188 40.609375 1.566406 L 40.609375 5.335938 C 54.011719 7.339844 64.640625 17.953125 66.65625 31.355469 Z M 66.65625 31.355469 " fill-opacity="1" fill-rule="nonzero"/></g><g clip-path="url(#61e7073b45)"><path fill="#10b981" d="M 40.625 66.65625 L 40.625 70.425781 C 56.078125 68.359375 68.359375 56.078125 70.425781 40.609375 L 66.65625 40.609375 C 64.652344 54.011719 54.023438 64.640625 40.625 66.65625 Z M 40.625 66.65625 " fill-opacity="1" fill-rule="nonzero"/></g><g clip-path="url(#45794eeeb1)"><path fill="#10b981" d="M 31.355469 5.335938 L 31.355469 1.566406 C 15.898438 3.628906 3.644531 15.898438 1.566406 31.355469 L 5.335938 31.355469 C 7.351562 17.964844 17.953125 7.351562 31.355469 5.335938 Z M 31.355469 5.335938 " fill-opacity="1" fill-rule="nonzero"/></g><g clip-path="url(#a4dab8f53c)"><path fill="#10b981" d="M 5.335938 40.609375 L 1.566406 40.609375 C 3.628906 56.078125 15.898438 68.359375 31.367188 70.425781 L 31.367188 66.65625 C 17.953125 64.640625 7.339844 54.011719 5.335938 40.609375 Z M 5.335938 40.609375 " fill-opacity="1" fill-rule="nonzero"/></g><path fill="#10b981" d="M 57.148438 52 C 60.523438 47.558594 62.535156 42.011719 62.535156 35.996094 C 62.535156 29.976562 60.523438 24.421875 57.148438 19.976562 L 54.542969 22.578125 C 57.292969 26.34375 58.902344 30.996094 58.902344 35.996094 C 58.902344 40.996094 57.292969 45.644531 54.542969 49.410156 Z M 57.148438 52 " fill-opacity="1" fill-rule="nonzero"/><path fill="#10b981" d="M 49.421875 54.542969 C 45.644531 57.28125 41.007812 58.902344 35.996094 58.902344 C 30.980469 58.902344 26.34375 57.292969 22.566406 54.554688 L 19.988281 57.132812 C 24.445312 60.523438 29.988281 62.535156 35.996094 62.535156 C 42 62.535156 47.558594 60.523438 52.011719 57.132812 Z M 49.421875 54.542969 " fill-opacity="1" fill-rule="nonzero"/><path fill="#10b981" d="M 22.566406 17.445312 C 26.34375 14.699219 30.980469 13.085938 35.996094 13.085938 C 41.007812 13.085938 45.644531 14.699219 49.410156 17.445312 L 52 14.855469 C 47.546875 11.464844 42 9.457031 35.996094 9.457031 C 29.988281 9.457031 24.433594 11.464844 19.976562 14.855469 Z M 22.566406 17.445312 " fill-opacity="1" fill-rule="nonzero"/><path fill="#10b981" d="M 14.84375 19.988281 C 11.464844 24.433594 9.457031 29.976562 9.457031 35.996094 C 9.457031 42.011719 11.464844 47.558594 14.84375 52 L 17.433594 49.410156 C 14.699219 45.644531 13.085938 40.996094 13.085938 35.996094 C 13.085938 30.996094 14.699219 26.34375 17.433594 22.578125 Z M 14.84375 19.988281 " fill-opacity="1" fill-rule="nonzero"/></svg>