<svg xmlns="http://www.w3.org/2000/svg" viewBox="0 0 903.6 140"><defs><style>.cls-1{fill:#1e4dff;}.cls-2,.cls-3,.cls-4,.cls-5,.cls-6,.cls-7,.cls-8{fill:#fff;}.cls-2{opacity:0.8;}.cls-3{opacity:0.45;}.cls-4{opacity:0.65;}.cls-5{opacity:0.6;}.cls-6{opacity:0.4;}.cls-7{opacity:0.2;}.cls-9{fill:#1f2542;}</style></defs><title>国际版logo+暗色文字</title><g id="图层_2" data-name="图层 2"><g id="图层_1-2" data-name="图层 1"><rect class="cls-1" width="140" height="140" rx="20"/><polygon class="cls-2" points="69.74 88.53 32.39 59.85 32.39 22.5 69.74 51.18 69.74 88.53"/><polygon class="cls-3" points="109.61 117.5 79.36 93.32 79.36 55.97 109.61 80.15 109.61 117.5"/><polygon class="cls-4" points="69.74 88.53 107.09 59.85 107.09 22.5 69.74 51.18 69.74 88.53"/><polygon class="cls-5" points="32.39 117.17 69.74 88.5 69.74 51.15 32.39 79.83 32.39 117.17"/><polygon class="cls-6" points="80.93 79.93 96.22 68.19 81.22 56.18 80.93 79.93"/><polygon class="cls-7" points="69.74 73.43 107.09 44.75 107.09 40.5 69.74 69.17 69.74 73.43"/><polygon class="cls-8" points="69.74 88.53 45.4 69.84 69.74 51.18 69.74 88.53"/><polygon class="cls-6" points="32.39 102.19 69.74 73.51 69.74 69.17 32.39 97.85 32.39 102.19"/><path class="cls-9" d="M203.48,108.22l-7.85,19.41H172.36l43.39-99.92H239l42.68,99.92H257.57l-7.85-19.41Zm23.26-56.95L210.9,90.09h31.54Z"/><path class="cls-9" d="M364.06,127.63H342.22V116.35c-5.43,7.85-13.71,12.14-24.27,12.14-21.84,0-36.25-15.85-36.25-39.54,0-23.41,14.27-39,35.68-39,10.85,0,19.27,4.28,24.84,12.13V21.72h21.84ZM337.48,89.52c0-12.56-7.85-21.27-19.13-21.27s-19.27,8.85-19.41,21.27c.14,12.56,7.85,21.27,19.41,21.27C329.63,110.79,337.48,102.08,337.48,89.52Z"/><path class="cls-9" d="M442,58.4l-7.57,15C426,68.68,417.44,66,411,66c-5.14,0-8.85,1.71-8.85,5.71,0,11.56,40.53,5.71,40.39,32.83,0,15.7-13.84,24-31.26,24-12.42,0-24.55-3.71-33.26-10.71l7.14-14.84c8,6.13,18.27,9.56,26.69,9.56,5.57,0,9.71-1.86,9.71-6,0-12.27-39.83-5.7-39.83-32.68,0-15.85,13.56-24,30.26-24A57.29,57.29,0,0,1,442,58.4Z"/><path class="cls-9" d="M500.08,27.71c25.41,0,40,12.56,40,34.69,0,23.27-14.56,36.68-40,36.68H480.24v28.55H457.69V27.71ZM480.24,80.24h18.7c12.56,0,19.7-5.71,19.7-17.13,0-11.13-7.14-16.7-19.7-16.7h-18.7Z"/><path class="cls-9" d="M629.83,89.23c0,23.41-16.56,39.26-41.11,39.26s-41.25-15.85-41.25-39.26S564,50.12,588.72,50.12,629.83,65.68,629.83,89.23Zm-60.24.29c0,12.56,7.71,21.12,19.13,21.12s19.13-8.56,19.13-21.12S600,68.39,588.72,68.39,569.59,77,569.59,89.52Z"/><path class="cls-9" d="M713.9,127.63,697.34,77l-16.41,50.67H659L630.83,51l22.41-.14,17.13,55,16.55-54.95h21.56l16.84,55,16.84-54.95h21.7l-28,76.79Z"/><path class="cls-9" d="M841.65,95.94h-55.1c2.57,9.71,10,15.42,19.84,15.42a27.25,27.25,0,0,0,19.42-8.14l11.56,11.71c-7.71,8.56-19,13.56-32.83,13.56-24.55,0-40.11-15.7-40.11-39,0-23.7,16.13-39.4,39.54-39.4C831,50.12,843.51,68,841.65,95.94ZM821.1,83c-.29-10.13-6.86-16.7-17-16.7-9.71,0-16.27,6.57-18,16.7Z"/><path class="cls-9" d="M878.19,64.68c5.28-9.42,14-14.56,25.41-14.7v20.7c-15.71-1.43-25.41,7-25.41,20v37h-22V50.84h22Z"/></g></g></svg>